<svg width="144" height="144" viewBox="0 0 144 144" fill="none" xmlns="http://www.w3.org/2000/svg">
  <rect width="144" height="144" fill="#121212"/>
  <defs>
    <linearGradient id="backGlow" x1="0%" y1="0%" x2="100%" y2="0%">
      <stop offset="0%" style="stop-color:#FF0000;stop-opacity:1" />
      <stop offset="33%" style="stop-color:#00FF00;stop-opacity:1" />
      <stop offset="66%" style="stop-color:#000AFF;stop-opacity:1" />
      <stop offset="100%" style="stop-color:#FF0000;stop-opacity:1" />
    </linearGradient>
    <filter id="premiumGlow" x="-20%" y="-100%" width="140%" height="300%">
      <feGaussianBlur stdDeviation="5" result="blur" />
      <feComposite in="SourceGraphic" in2="blur" operator="over" />
    </filter>
  </defs>
  <!-- Light Bar -->
  <rect x="20" y="85" width="104" height="16" rx="8" fill="url(#backGlow)" filter="url(#premiumGlow)"/>
  <!-- Palette/Picker Symbol Above -->
  <g transform="translate(0, -5)">
    <path d="M72 30C63 30 55 37 55 45C55 53 62 60 72 60C74 60 75 59 75 57C75 56 74.5 55.5 74.5 54.5C74.5 53.5 75 53 75 52C75 50 77 48 80 48H84C89 48 93 44 93 39C93 34 83.5 30 72 30Z" stroke="white" stroke-width="2.5"/>
    <circle cx="63" cy="38" r="2.5" fill="white"/>
    <circle cx="72" cy="35" r="2.5" fill="white"/>
    <circle cx="81" cy="40" r="2.5" fill="white"/>
  </g>
</svg>
